<svg id="visual" viewBox="0 0 1440 200" width="1440" height="200" xmlns="http://www.w3.org/2000/svg" xmlns:xlink="http://www.w3.org/1999/xlink" version="1.1"><path d="M0 105L55 101L111 97L166 104L222 94L277 98L332 108L388 98L443 93L498 104L554 90L609 93L665 103L720 95L775 96L831 100L886 96L942 91L997 106L1052 98L1108 98L1163 92L1218 106L1274 106L1329 93L1385 100L1440 96L1440 201L1385 201L1329 201L1274 201L1218 201L1163 201L1108 201L1052 201L997 201L942 201L886 201L831 201L775 201L720 201L665 201L609 201L554 201L498 201L443 201L388 201L332 201L277 201L222 201L166 201L111 201L55 201L0 201Z" fill="#ffffff" stroke-linecap="square" stroke-linejoin="bevel"></path></svg>